<svg width="15.000000" height="14.000000" viewBox="0 0 15 14" fill="none" xmlns="http://www.w3.org/2000/svg" xmlns:xlink="http://www.w3.org/1999/xlink">
	<desc>
			Created with Pixso.
	</desc>
	<defs/>
	<path id="Vector" d="M7.13 2.68C5.02 2.68 3.31 4.38 3.31 6.49C3.31 8.6 5.02 10.31 7.13 10.31C9.25 10.31 10.95 8.6 10.95 6.49C10.95 4.38 9.25 2.68 7.13 2.68ZM7.13 8.97C5.76 8.97 4.65 7.86 4.65 6.49C4.65 5.12 5.76 4.01 7.13 4.01C8.5 4.01 9.62 5.12 9.62 6.49C9.62 7.86 8.5 8.97 7.13 8.97ZM12 2.52C12 3.02 11.6 3.41 11.11 3.41C10.61 3.41 10.22 3.01 10.22 2.52C10.22 2.03 10.62 1.63 11.11 1.63C11.6 1.63 12 2.03 12 2.52ZM14.53 3.42C14.47 2.23 14.2 1.18 13.33 0.31C12.46 -0.56 11.4 -0.84 10.2 -0.9C8.97 -0.97 5.29 -0.97 4.06 -0.9C2.86 -0.84 1.81 -0.57 0.93 0.3C0.06 1.17 -0.21 2.23 -0.27 3.42C-0.34 4.65 -0.34 8.33 -0.27 9.56C-0.21 10.75 0.06 11.81 0.93 12.68C1.81 13.55 2.86 13.82 4.06 13.88C5.29 13.95 8.97 13.95 10.2 13.88C11.4 13.82 12.46 13.55 13.33 12.68C14.2 11.81 14.47 10.75 14.53 9.56C14.6 8.33 14.6 4.65 14.53 3.42ZM12.94 10.88C12.68 11.53 12.18 12.03 11.53 12.29C10.54 12.68 8.22 12.59 7.13 12.59C6.05 12.59 3.72 12.68 2.74 12.29C2.09 12.03 1.58 11.53 1.32 10.88C0.93 9.9 1.02 7.57 1.02 6.49C1.02 5.41 0.94 3.08 1.32 2.11C1.58 1.45 2.08 0.95 2.74 0.69C3.72 0.3 6.05 0.39 7.13 0.39C8.22 0.39 10.55 0.31 11.53 0.69C12.18 0.95 12.68 1.45 12.94 2.11C13.33 3.09 13.24 5.41 13.24 6.49C13.24 7.57 13.33 9.9 12.94 10.88Z" fill="#000000" fill-opacity="1.000000" fill-rule="nonzero"/>
</svg>
