<svg width="12.000000" height="15.000000" viewBox="0 0 12 15" fill="none" xmlns="http://www.w3.org/2000/svg" xmlns:xlink="http://www.w3.org/1999/xlink">
	<desc>
			Created with Pixso.
	</desc>
	<defs/>
	<path id="Vector" d="M5.74 -0.8C2.55 -0.8 -0.6 1.34 -0.6 4.79C-0.6 7 0.63 8.25 1.38 8.25C1.68 8.25 1.86 7.38 1.86 7.14C1.86 6.85 1.13 6.23 1.13 5.02C1.13 2.51 3.03 0.73 5.48 0.73C7.6 0.73 9.16 1.94 9.16 4.16C9.16 5.82 8.5 8.93 6.36 8.93C5.59 8.93 4.93 8.37 4.93 7.56C4.93 6.38 5.74 5.24 5.74 4.02C5.74 1.95 2.83 2.32 2.83 4.82C2.83 5.35 2.9 5.93 3.13 6.41C2.7 8.26 1.82 11.03 1.82 12.94C1.82 13.53 1.91 14.11 1.96 14.7C2.07 14.82 2.02 14.81 2.18 14.75C3.74 12.6 3.69 12.17 4.39 9.35C4.78 10.08 5.76 10.48 6.55 10.48C9.84 10.48 11.32 7.24 11.32 4.33C11.32 1.22 8.66 -0.8 5.74 -0.8Z" fill="#000000" fill-opacity="1.000000" fill-rule="nonzero"/>
</svg>
