<svg width="16.000000" height="13.000000" viewBox="0 0 16 13" fill="none" xmlns="http://www.w3.org/2000/svg" xmlns:xlink="http://www.w3.org/1999/xlink">
	<desc>
			Created with Pixso.
	</desc>
	<defs/>
	<path id="Vector" d="M13.41 2.74C13.42 2.88 13.42 3.02 13.42 3.16C13.42 7.5 10.15 12.49 4.16 12.49C2.31 12.49 0.6 11.95 -0.85 11.02C-0.58 11.05 -0.33 11.06 -0.06 11.06C1.46 11.06 2.87 10.54 3.98 9.66C2.55 9.63 1.35 8.69 0.94 7.39C1.14 7.42 1.34 7.44 1.55 7.44C1.85 7.44 2.14 7.4 2.41 7.32C0.92 7.02 -0.2 5.7 -0.2 4.11L-0.2 4.07C0.23 4.31 0.74 4.46 1.27 4.48C0.39 3.89 -0.18 2.89 -0.18 1.75C-0.18 1.14 -0.02 0.58 0.26 0.1C1.87 2.09 4.28 3.39 6.98 3.53C6.93 3.28 6.9 3.03 6.9 2.78C6.9 0.97 8.35 -0.5 10.16 -0.5C11.09 -0.5 11.94 -0.11 12.54 0.53C13.27 0.39 13.98 0.12 14.6 -0.26C14.36 0.5 13.85 1.14 13.17 1.55C13.83 1.48 14.46 1.29 15.05 1.04C14.6 1.69 14.05 2.27 13.41 2.74Z" fill="#000000" fill-opacity="1.000000" fill-rule="nonzero"/>
</svg>
